<svg xmlns="http://www.w3.org/2000/svg" xmlns:xlink="http://www.w3.org/1999/xlink" version="1.1" width="256" height="256" viewBox="0 0 256 256" xml:space="preserve">

<defs>
</defs>
<g style="stroke: none; stroke-width: 0; stroke-dasharray: none; stroke-linecap: butt; stroke-linejoin: miter; stroke-miterlimit: 10; fill: none; fill-rule: nonzero; opacity: 1;" transform="translate(1.4065934065934016 1.4065934065934016) scale(2.81 2.81)" >
	<path d="M 44.913 26.682 H 15.231 c -8.28 0 -15.002 -3.611 -15.211 -11.841 C 0.016 14.972 0 15.099 0 15.231 v 31.303 c 8.265 10.233 20.908 16.784 35.087 16.784 h 0.682 c 8.28 0 12.002 3.611 12.211 11.841 c 0.003 -0.131 0.02 -0.258 0.02 -0.39 C 48 83.181 44.181 90 35.769 90 h 39 C 83.181 90 90 83.181 90 74.769 C 90 42.732 69.814 26.682 44.913 26.682 z" style="stroke: none; stroke-width: 1; stroke-dasharray: none; stroke-linecap: butt; stroke-linejoin: miter; stroke-miterlimit: 10; fill: rgb(62,109,228); fill-rule: nonzero; opacity: 1;" transform=" matrix(1 0 0 1 0 0) " stroke-linecap="round" />
	<path d="M 90 74.769 L 90 74.769 c 0 -24.901 -20.186 -45.087 -45.087 -45.087 H 15.231 c -8.28 0 -15.002 -6.611 -15.211 -14.841 C 0.016 14.972 0 15.099 0 15.231 C 0 6.819 6.819 0 15.231 0 h 59.538 C 83.181 0 90 6.819 90 15.231 V 74.769" style="stroke: none; stroke-width: 1; stroke-dasharray: none; stroke-linecap: butt; stroke-linejoin: miter; stroke-miterlimit: 10; fill: rgb(65,118,250); fill-rule: nonzero; opacity: 1;" transform=" matrix(1 0 0 1 0 0) " stroke-linecap="round" />
	<path d="M 0 74.769 V 43.534 c 8.265 10.233 20.908 16.784 35.087 16.784 h 0.682 c 8.28 0 15.002 6.611 15.211 14.841 c 0.003 -0.131 0.02 -0.258 0.02 -0.39 C 51 83.181 44.181 90 35.769 90 H 15.231 C 6.819 90 0 83.181 0 74.769 z" style="stroke: none; stroke-width: 1; stroke-dasharray: none; stroke-linecap: butt; stroke-linejoin: miter; stroke-miterlimit: 10; fill: rgb(57,102,212); fill-rule: nonzero; opacity: 1;" transform=" matrix(1 0 0 1 0 0) " stroke-linecap="round" />
	<path d="M 23.403 11.148 h -4.904 V 9.93 h 4.905 L 23.403 11.148 L 23.403 11.148 z M 15.234 16.143 c 0.316 0.49 0.475 1.085 0.475 1.784 c 0 0.722 -0.178 1.371 -0.541 1.943 c -0.231 0.379 -0.517 0.699 -0.861 0.956 c -0.388 0.298 -0.847 0.502 -1.374 0.612 c -0.529 0.11 -1.102 0.165 -1.719 0.165 H 5.727 V 9.424 h 5.882 c 1.483 0.024 2.534 0.454 3.154 1.297 c 0.372 0.517 0.557 1.138 0.557 1.86 c 0 0.745 -0.187 1.34 -0.563 1.793 c -0.209 0.254 -0.518 0.485 -0.927 0.693 C 14.45 15.294 14.92 15.651 15.234 16.143 z M 8.536 14.226 h 2.577 c 0.53 0 0.958 -0.101 1.287 -0.302 c 0.329 -0.201 0.494 -0.558 0.494 -1.071 c 0 -0.567 -0.218 -0.943 -0.654 -1.123 c -0.375 -0.126 -0.855 -0.191 -1.438 -0.191 H 8.536 V 14.226 z M 13.143 17.753 c 0 -0.633 -0.259 -1.07 -0.775 -1.305 c -0.289 -0.133 -0.696 -0.202 -1.218 -0.206 H 8.536 v 3.246 h 2.574 c 0.529 0 0.938 -0.069 1.233 -0.214 C 12.875 19.009 13.143 18.503 13.143 17.753 z M 25.223 15.772 c 0.059 0.398 0.086 0.976 0.075 1.732 h -6.352 c 0.035 0.877 0.338 1.49 0.912 1.841 c 0.346 0.22 0.766 0.328 1.257 0.328 c 0.518 0 0.941 -0.131 1.266 -0.4 c 0.177 -0.143 0.333 -0.344 0.468 -0.598 h 2.328 c -0.061 0.518 -0.341 1.043 -0.845 1.577 c -0.781 0.848 -1.875 1.274 -3.281 1.274 c -1.161 0 -2.185 -0.359 -3.073 -1.073 c -0.885 -0.717 -1.33 -1.881 -1.33 -3.495 c 0 -1.513 0.399 -2.672 1.2 -3.478 c 0.804 -0.808 1.842 -1.21 3.121 -1.21 c 0.758 0 1.442 0.135 2.051 0.408 c 0.608 0.273 1.11 0.702 1.506 1.292 C 24.885 14.487 25.115 15.088 25.223 15.772 z M 22.931 15.999 c -0.043 -0.606 -0.245 -1.065 -0.61 -1.379 c -0.361 -0.314 -0.813 -0.472 -1.352 -0.472 c -0.586 0 -1.039 0.169 -1.361 0.5 c -0.324 0.331 -0.525 0.781 -0.608 1.351 L 22.931 15.999 L 22.931 15.999 z" style="stroke: none; stroke-width: 1; stroke-dasharray: none; stroke-linecap: butt; stroke-linejoin: miter; stroke-miterlimit: 10; fill: rgb(255,255,255); fill-rule: nonzero; opacity: 1;" transform=" matrix(2.81 0 0 2.81 1.4065934065934016 1.4065934065934016) " stroke-linecap="round" />
</g>
</svg>